<?xml version="1.0" encoding="utf-8"?>
<svg xmlns="http://www.w3.org/2000/svg" xmlns:svg="http://www.w3.org/2000/svg" version="1.1" viewBox="0 0 1400 340">
	<title>The titlepage for the Standard Ebooks edition of Plague Ship, by Andre Norton</title>
	<g aria-label="PLAGUE SHIP">
		<path d="M 360.43859,52.807016 V 130 h 17.59064 v -28.63158 h 10.5731 c 15.06433,0 26.38597,-8.888888 26.38597,-24.795322 0,-16 -11.32164,-23.766082 -26.38597,-23.766082 z m 17.59064,34.526317 V 66.842104 h 4.95907 c 6.92398,0 13.47368,2.339181 13.47368,10.292398 0,7.859649 -6.5497,10.198831 -13.47368,10.198831 z"/>
		<path d="M 445.34649,52.807016 H 427.75584 V 130 h 44.16375 v -15.4386 h -26.5731 z"/>
		<path d="M 526.23684,52.807016 H 509.95613 L 478.79824,130 h 18.90058 l 5.70761,-15.4386 h 29.38011 L 538.49415,130 h 18.90058 z m 0.5614,46.31579 h -17.40351 l 8.60819,-22.45614 h 0.18713 z"/>
		<path d="m 635.11549,86.771929 h -35.64912 v 13.567251 h 17.77778 c 0,9.45029 -8.32749,14.87719 -16.74854,14.87719 -10.8538,0 -19.64912,-10.66666 -19.64912,-23.766078 0,-13.380117 8.79532,-24.140352 19.64912,-24.140352 6.83041,0 12.72515,2.713451 17.21638,9.918129 L 629.22076,64.59649 c -6.73684,-8.140351 -16.18714,-13.192983 -29.75439,-13.192983 -21.7076,0 -37.61404,17.871346 -37.61404,40.046785 0,22.081868 16.84211,39.953218 37.61404,39.953218 15.1579,0 31.4386,-8.32749 35.64912,-27.88304 z"/>
		<path d="M 707.12134,52.807016 H 689.5307 v 44.63158 c 0,12.912284 -3.92982,16.654974 -12.53801,16.654974 -8.60819,0 -12.53801,-3.74269 -12.53801,-16.654974 v -44.63158 h -17.59065 v 49.777774 c 0,19.08772 10.47954,28.81872 30.12866,28.81872 19.64912,0 30.12865,-9.731 30.12865,-28.81872 z"/>
		<path d="M 766.59065,52.807016 H 722.4269 V 130 h 44.16375 v -15.4386 h -26.5731 V 99.029239 h 25.45029 V 83.590642 H 740.01755 V 68.245613 h 26.5731 z"/>
		<path d="m 838.90498,51.403507 c -12.44445,0 -25.16959,9.169591 -25.16959,23.578948 0,8.046784 5.4269,15.251462 14.69006,19.836258 9.16959,4.584795 17.4035,7.111107 17.4035,12.725147 0,7.20468 -7.29824,7.57895 -11.1345,7.57895 -8.60819,0 -18.90058,-8.70176 -18.90058,-8.70176 l -8.79533,14.78363 c 0,0 10.94737,10.19883 29.00585,10.19883 15.06433,0 29.09942,-6.45614 29.09942,-24.88889 0,-10.105264 -9.45029,-17.40351 -18.05848,-21.052632 -8.79532,-3.742691 -16.09357,-6.83041 -16.09357,-11.134504 0,-4.210526 3.18129,-6.923976 9.16959,-6.923976 7.95322,0 15.62573,5.333333 15.62573,5.333333 l 7.11111,-14.035088 c 0,0 -9.91812,-7.298246 -23.95321,-7.298246 z"/>
		<path d="m 895.91669,99.029239 h 24.88889 V 130 h 17.59064 V 52.807016 H 920.80558 V 83.590642 H 895.91669 V 52.807016 H 878.32604 V 130 h 17.59065 z"/>
		<path d="M 972.1886,52.807016 H 954.59795 V 130 h 17.59065 z"/>
		<path d="M 988.47222,52.807016 V 130 h 17.59068 v -28.63158 h 10.5731 c 15.0643,0 26.3859,-8.888888 26.3859,-24.795322 0,-16 -11.3216,-23.766082 -26.3859,-23.766082 z m 17.59068,34.526317 V 66.842104 h 4.959 c 6.924,0 13.4737,2.339181 13.4737,10.292398 0,7.859649 -6.5497,10.198831 -13.4737,10.198831 z"/>
	</g>
	<g aria-label="ANDRE NORTON">
		<path d="M 405.53838,232.10526 H 393.32785 L 369.95943,290 h 14.17544 l 4.2807,-11.57895 h 22.03509 L 414.73136,290 h 14.17544 z m 0.42105,34.73685 H 392.9068 L 399.36294,250 h 0.14035 z"/>
		<path d="m 449.28948,254.07018 h 0.14035 L 472.44737,290 h 13.19298 v -57.89474 h -13.19298 v 35.92983 h -0.14035 L 449.28948,232.10526 H 436.0965 V 290 h 13.19298 z"/>
		<path d="M 499.07347,232.10526 V 290 h 16.77193 c 15.92982,0 29.19298,-12.07018 29.19298,-28.98246 0,-16.8421 -13.33333,-28.91228 -29.19298,-28.91228 z m 13.19298,46.10527 v -34.31579 h 2.03509 c 9.82456,0 16.49123,7.50877 16.49123,17.19298 -0.0702,9.68421 -6.73684,17.12281 -16.49123,17.12281 z"/>
		<path d="M 555.88267,232.10526 V 290 h 13.19299 V 267.12281 L 586.75987,290 h 16.77193 l -19.92983,-23.92982 c 7.08772,-2.24562 11.85965,-8.07018 11.85965,-16.77193 0,-11.36842 -8.14035,-17.19299 -18.87719,-17.19299 z m 13.19299,25.68421 v -15.15789 h 1.54386 c 4.98245,0 10.94736,0.35088 10.94736,7.57895 0,7.22807 -5.96491,7.57894 -10.94736,7.57894 z"/>
		<path d="m 644.30702,232.10526 h -33.1228 V 290 h 33.1228 V 278.42105 H 624.3772 v -11.64912 h 19.08772 V 255.19298 H 624.3772 v -11.50877 h 19.92982 z"/>
		<path d="m 694.27304,254.07018 h 0.14035 L 717.43094,290 h 13.19298 v -57.89474 h -13.19298 v 35.92983 h -0.14035 L 694.27304,232.10526 H 681.08006 V 290 h 13.19298 z"/>
		<path d="m 741.46053,261.01754 c 0,16.91228 12.07018,30.03509 29.19298,30.03509 16.63158,0 29.12281,-13.12281 29.12281,-30.03509 0,-16.91228 -13.05263,-29.96491 -29.12281,-29.96491 -15.92982,0 -29.19298,13.05263 -29.19298,29.96491 z m 14.24561,0 c 0,-8.63157 4.77193,-17.26315 14.94737,-17.26315 10.24562,0 14.87719,8.63158 14.87719,17.26315 0,8.63158 -4.35087,17.26316 -14.87719,17.26316 -10.80702,0 -14.94737,-8.63158 -14.94737,-17.26316 z"/>
		<path d="M 810.59758,232.10526 V 290 h 13.19298 V 267.12281 L 841.47477,290 h 16.77193 l -19.92982,-23.92982 c 7.08772,-2.24562 11.85965,-8.07018 11.85965,-16.77193 0,-11.36842 -8.14036,-17.19299 -18.8772,-17.19299 z m 13.19298,25.68421 v -15.15789 h 1.54386 c 4.98246,0 10.94737,0.35088 10.94737,7.57895 0,7.22807 -5.96491,7.57894 -10.94737,7.57894 z"/>
		<path d="m 859.50879,243.68421 h 13.75439 V 290 h 13.19298 v -46.31579 h 13.75438 v -11.57895 h -40.70175 z"/>
		<path d="m 905.17217,261.01754 c 0,16.91228 12.07017,30.03509 29.19298,30.03509 16.63158,0 29.12281,-13.12281 29.12281,-30.03509 0,-16.91228 -13.05263,-29.96491 -29.12281,-29.96491 -15.92982,0 -29.19298,13.05263 -29.19298,29.96491 z m 14.24561,0 c 0,-8.63157 4.77193,-17.26315 14.94737,-17.26315 10.24562,0 14.87719,8.63158 14.87719,17.26315 0,8.63158 -4.35087,17.26316 -14.87719,17.26316 -10.80702,0 -14.94737,-8.63158 -14.94737,-17.26316 z"/>
		<path d="m 987.50217,254.07018 h 0.14035 L 1010.6601,290 h 13.1929 v -57.89474 h -13.1929 v 35.92983 h -0.1404 L 987.50217,232.10526 H 974.30919 V 290 h 13.19298 z"/>
	</g>
</svg>
